<svg width="57" height="56" viewBox="0 0 57 56" fill="none" xmlns="http://www.w3.org/2000/svg">
<path fill-rule="evenodd" clip-rule="evenodd" d="M35.2146 42.2877C36.0221 42.8187 36.2464 43.9038 35.7154 44.7114L29.9623 53.4614C29.4313 54.269 28.3462 54.4932 27.5386 53.9622C26.731 53.4312 26.5068 52.3461 27.0378 51.5386L32.7909 42.7886C33.3219 41.981 34.407 41.7568 35.2146 42.2877Z" fill="white"/>
<path fill-rule="evenodd" clip-rule="evenodd" d="M29.9654 33.5383C30.7727 34.0698 30.9963 35.155 30.4648 35.9623L23.5523 46.4623C23.0209 47.2695 21.9356 47.4931 21.1283 46.9617C20.3211 46.4302 20.0975 45.345 20.6289 44.5377L27.5414 34.0377C28.0729 33.2304 29.1581 33.0068 29.9654 33.5383Z" fill="white"/>
<path fill-rule="evenodd" clip-rule="evenodd" d="M37.1856 7.25218C34.6396 6.74575 32.0006 7.00567 29.6023 7.99907C27.204 8.99247 25.1542 10.6747 23.712 12.8331C22.2698 14.9915 21.5 17.5291 21.5 20.125C21.5 21.0915 20.7165 21.875 19.75 21.875C18.7835 21.875 18 21.0915 18 20.125C18 19.2658 18.0666 18.4116 18.1975 17.5698C17.8457 17.5215 17.4903 17.4981 17.134 17.5L17.125 17.5C15.0364 17.5 13.0334 18.3297 11.5565 19.8065C10.0797 21.2834 9.25 23.2864 9.25 25.375C9.25 27.4636 10.0797 29.4666 11.5565 30.9435C13.0334 32.4203 15.0364 33.25 17.125 33.25H34.625C37.2209 33.25 39.7585 32.4802 41.9169 31.038C44.0753 29.5958 45.7575 27.546 46.7509 25.1477C47.7443 22.7494 48.0042 20.1104 47.4978 17.5644C46.9914 15.0184 45.7413 12.6798 43.9058 10.8442C42.0702 9.00864 39.7316 7.75861 37.1856 7.25218ZM19.1032 14.1698C19.5435 13.0222 20.1119 11.9212 20.8018 10.8886C22.6286 8.15466 25.2251 6.02379 28.2629 4.76549C31.3007 3.50718 34.6434 3.17795 37.8684 3.81943C41.0933 4.46091 44.0556 6.04429 46.3806 8.36933C48.7057 10.6944 50.2891 13.6567 50.9306 16.8816C51.572 20.1065 51.2428 23.4493 49.9845 26.4871C48.7262 29.5249 46.5953 32.1214 43.8614 33.9482C41.1274 35.7749 37.9131 36.75 34.625 36.75H17.125C14.1082 36.75 11.2149 35.5516 9.08166 33.4183C6.94843 31.2851 5.75 28.3918 5.75 25.375C5.75 22.3581 6.94843 19.4649 9.08166 17.3316C11.2138 15.1995 14.1053 14.0012 17.1206 14" fill="white"/>
</svg>
