<svg width="57" height="56" viewBox="0 0 57 56" fill="none" xmlns="http://www.w3.org/2000/svg">
<path fill-rule="evenodd" clip-rule="evenodd" d="M29.5036 2.06633L28.5 3.49998L27.4964 2.06633C28.099 1.64454 28.901 1.64454 29.5036 2.06633ZM28.5 5.68749C28.0734 6.02023 27.5286 6.45842 26.899 6.99353C25.3071 8.34664 23.1866 10.3086 21.0706 12.742C16.7957 17.6581 12.75 24.2551 12.75 31.5C12.75 35.6771 14.4094 39.6832 17.3631 42.6369C20.3168 45.5906 24.3228 47.25 28.5 47.25C32.6772 47.25 36.6832 45.5906 39.6369 42.6369C42.5906 39.6832 44.25 35.6771 44.25 31.5C44.25 24.2551 40.2043 17.6581 35.9294 12.742C33.8134 10.3086 31.6929 8.34664 30.101 6.99353C29.4714 6.45842 28.9266 6.02023 28.5 5.68749ZM27.4954 2.06706C27.496 2.06667 27.4964 2.06633 28.5 3.49998C29.5036 2.06633 29.504 2.06667 29.5046 2.06706L29.5061 2.06808L29.5101 2.07095L29.5231 2.08008L29.5676 2.11173C29.6054 2.13875 29.6594 2.17758 29.7284 2.22795C29.8663 2.32868 30.0646 2.47565 30.3146 2.66671C30.8144 3.0487 31.5219 3.60773 32.3678 4.32675C34.0571 5.76271 36.3116 7.84762 38.5706 10.4454C43.0457 15.5919 47.75 22.9949 47.75 31.5C47.75 36.6054 45.7219 41.5017 42.1118 45.1118C38.5017 48.7219 33.6054 50.75 28.5 50.75C23.3946 50.75 18.4983 48.7219 14.8882 45.1118C11.2781 41.5017 9.25 36.6054 9.25 31.5C9.25 22.9949 13.9543 15.5919 18.4294 10.4454C20.6884 7.84762 22.9429 5.76271 24.6322 4.32675C25.4781 3.60773 26.1856 3.0487 26.6854 2.66671C26.9354 2.47565 27.1337 2.32868 27.2716 2.22795C27.3406 2.17758 27.3946 2.13875 27.4324 2.11173L27.4769 2.08008L27.4899 2.07095L27.4939 2.06808L27.4954 2.06706Z" fill="white"/>
<path fill-rule="evenodd" clip-rule="evenodd" d="M39.1438 31.5472C40.0963 31.7112 40.7355 32.6163 40.5715 33.5687C40.142 36.0638 38.9487 38.364 37.1562 40.1519C35.3637 41.9398 33.0605 43.1272 30.5644 43.5504C29.6115 43.7119 28.708 43.0704 28.5465 42.1175C28.385 41.1646 29.0265 40.2611 29.9794 40.0996C31.7611 39.7976 33.4051 38.95 34.6845 37.6738C35.9639 36.3977 36.8157 34.7559 37.1223 32.975C37.2862 32.0225 38.1913 31.3833 39.1438 31.5472Z" fill="white"/>
</svg>
