<svg width="56" height="56" viewBox="0 0 56 56" fill="none" xmlns="http://www.w3.org/2000/svg">
<path fill-rule="evenodd" clip-rule="evenodd" d="M33.2493 33.25C34.5287 33.2491 35.7838 33.5988 36.8784 34.2612C37.9731 34.9237 38.8653 35.8737 39.458 37.0077C40.0507 38.1418 40.3212 39.4167 40.2401 40.6937C40.159 41.9707 39.7294 43.2011 38.998 44.2511C38.2666 45.3011 37.2613 46.1305 36.0916 46.6491C34.9218 47.1678 33.6322 47.3559 32.363 47.193C31.0938 47.0301 29.8936 46.5224 28.8927 45.7251C27.8918 44.9279 27.1286 43.8715 26.6861 42.6708C26.3519 41.764 26.8161 40.7578 27.7229 40.4236C28.6298 40.0893 29.6359 40.5535 29.9701 41.4604C30.1914 42.0607 30.573 42.5889 31.0734 42.9876C31.5739 43.3862 32.174 43.6401 32.8086 43.7215C33.4432 43.803 34.088 43.7089 34.6729 43.4496C35.2578 43.1902 35.7604 42.7755 36.1261 42.2505C36.4918 41.7255 36.7066 41.1104 36.7471 40.4718C36.7877 39.8333 36.6525 39.1959 36.3561 38.6289C36.0598 38.0618 35.6137 37.5869 35.0663 37.2556C34.5189 36.9244 33.8912 36.7495 33.2514 36.75L8.75 36.75C7.7835 36.75 7 35.9665 7 35C7 34.0335 7.7835 33.25 8.75 33.25H33.2493Z" fill="white" fill-opacity="0.87"/>
<path fill-rule="evenodd" clip-rule="evenodd" d="M27.6729 12.5504C27.088 12.2911 26.4432 12.197 25.8086 12.2785C25.174 12.3599 24.5739 12.6138 24.0734 13.0124C23.573 13.411 23.1914 13.9392 22.9701 14.5396C22.6359 15.4464 21.6298 15.9106 20.7229 15.5764C19.8161 15.2421 19.3519 14.236 19.6861 13.3292C20.1286 12.1285 20.8918 11.0721 21.8927 10.2748C22.8936 9.47754 24.0938 8.96985 25.363 8.80694C26.6322 8.64404 27.9218 8.83215 29.0916 9.35083C30.2613 9.86951 31.2666 10.6989 31.998 11.7489C32.7294 12.7989 33.159 14.0292 33.2401 15.3063C33.3212 16.5833 33.0507 17.8582 32.458 18.9922C31.8653 20.1263 30.9731 21.0762 29.8784 21.7387C28.784 22.401 27.5291 22.7507 26.25 22.75H5.25C4.2835 22.75 3.5 21.9665 3.5 21C3.5 20.0335 4.2835 19.25 5.25 19.25H26.25C26.8898 19.2505 27.5189 19.0756 28.0663 18.7444C28.6137 18.4131 29.0598 17.9381 29.3561 17.3711C29.6525 16.8041 29.7877 16.1666 29.7471 15.5281C29.7066 14.8896 29.4918 14.2744 29.1261 13.7494C28.7604 13.2244 28.2578 12.8097 27.6729 12.5504Z" fill="white" fill-opacity="0.87"/>
<path fill-rule="evenodd" clip-rule="evenodd" d="M46.9229 19.5504C46.338 19.2911 45.6932 19.197 45.0586 19.2785C44.424 19.3599 43.8239 19.6138 43.3234 20.0124C42.823 20.411 42.4414 20.9392 42.2201 21.5396C41.8859 22.4464 40.8798 22.9106 39.9729 22.5764C39.0661 22.2421 38.6019 21.236 38.9361 20.3291C39.3786 19.1285 40.1418 18.0721 41.1427 17.2748C42.1436 16.4775 43.3438 15.9698 44.613 15.8069C45.8822 15.644 47.1718 15.8322 48.3416 16.3508C49.5113 16.8695 50.5166 17.6989 51.248 18.7489C51.9794 19.7989 52.409 21.0292 52.4901 22.3063C52.5712 23.5833 52.3007 24.8582 51.708 25.9922C51.1153 27.1263 50.2231 28.0762 49.1284 28.7387C48.034 29.401 46.779 29.7508 45.4998 29.75C45.4994 29.75 45.5002 29.75 45.4998 29.75H7C6.0335 29.75 5.25 28.9665 5.25 28C5.25 27.0335 6.0335 26.25 7 26.25H45.5C46.1398 26.2505 46.7689 26.0756 47.3163 25.7444C47.8637 25.4131 48.3098 24.9381 48.6061 24.3711C48.9025 23.8041 49.0377 23.1666 48.9971 22.5281C48.9566 21.8896 48.7418 21.2744 48.3761 20.7494C48.0104 20.2245 47.5078 19.8097 46.9229 19.5504Z" fill="white" fill-opacity="0.87"/>
</svg>
